<?xml version="1.0" encoding="UTF-8" standalone="no"?>
<!-- Created with Inkscape (http://www.inkscape.org/) -->

<svg
   width="27.353331mm"
   height="34.659431mm"
   viewBox="0 0 27.353331 34.659431"
   version="1.1"
   id="svg1"
   xml:space="preserve"
   xmlns="http://www.w3.org/2000/svg"
   xmlns:svg="http://www.w3.org/2000/svg"><defs
     id="defs1" /><g
     id="layer1"
     transform="translate(-15.187596,-196.75687)"><path
       d="m 36.029735,196.75688 c -0.40715,0 -0.40655,-0.0147 -0.0501,1.0077 0.38532,1.10532 -0.29703,3.46405 -1.33687,4.6209 l -0.76739,0.8537 -0.41031,-0.9741 c -0.55593,-1.32082 -0.85226,-1.43247 -1.02216,-0.38551 -0.0784,0.48327 -0.53196,1.51093 -1.0077,2.2841 -1.5286,2.4843 -1.28699,5.04371 0.64648,6.84816 l 0.67386,0.62838 0.18345,-1.38234 c 0.19465,-1.46739 1.3642,-3.49968 2.39882,-4.16822 0.5638,-0.36431 0.56762,-0.35513 0.31936,0.74982 -0.32087,1.42807 -0.104,2.39364 0.70848,3.15692 0.60605,0.56936 0.67411,0.57935 1.13327,0.16381 0.46114,-0.41733 0.5063,-0.40413 0.79685,0.23358 0.63231,1.38777 0.16279,2.86704 -1.27383,4.01577 -0.33761,0.26993 -0.26137,0.32373 0.46768,0.33073 1.78344,0.0172 3.826,-1.56863 4.71702,-3.66179 0.53751,-1.26269 0.39874,-5.62641 -0.21549,-6.77323 l -0.42116,-0.786 -0.34003,1.13482 c -0.29786,0.99416 -1.05756,1.89239 -1.60094,1.89239 -0.0989,0 -0.009,-0.56554 0.19999,-1.25677 0.75894,-2.51102 -0.36167,-5.97641 -2.50321,-7.74165 -0.52774,-0.43501 -1.11091,-0.79117 -1.29604,-0.79117 z m -7.50859,12.63441 -0.67231,0.62786 c -0.57607,0.53813 -0.65156,0.78616 -0.524,1.72806 0.11505,0.84956 0.0308,1.25021 -0.37155,1.76165 -0.28638,0.36407 -0.5209,0.79726 -0.5209,0.96274 0,0.16548 1.08944,1.4265 2.42052,2.80241 1.33107,1.37592 2.59263,2.50165 2.80345,2.50165 0.21081,0 0.72566,-0.24428 1.14463,-0.5426 0.57787,-0.41148 0.98353,-0.50066 1.68,-0.37 0.76523,0.14355 1.03189,0.0585 1.60249,-0.51211 0.63486,-0.63486 0.65568,-0.72825 0.2868,-1.28365 -0.21877,-0.32939 -2.07407,-2.19149 -4.12326,-4.13773 z m -2.50682,7.22383 c -0.322,0.0189 -9.61722,11.37126 -10.29757,12.5765 l -0.52916,0.93741 0.79375,0.64285 c 0.43656,0.35355 0.82973,0.64369 0.87333,0.64441 0.26634,0.004 1.6497,-0.84838 1.82573,-1.12551 0.19291,-0.30369 1.35268,-1.37402 8.73848,-8.06515 l 2.40657,-2.18074 -1.78387,-1.72186 c -0.9811,-0.94717 -1.89339,-1.71591 -2.02726,-1.70791 z"
       id="path1-19" /></g></svg>
