<?xml version="1.0" encoding="UTF-8" standalone="no"?>
<!-- Created with Inkscape (http://www.inkscape.org/) -->

<svg
   width="24.858366mm"
   height="35.955013mm"
   viewBox="0 0 24.858366 35.955013"
   version="1.1"
   id="svg1"
   xml:space="preserve"
   xmlns:inkscape="http://www.inkscape.org/namespaces/inkscape"
   xmlns:sodipodi="http://sodipodi.sourceforge.net/DTD/sodipodi-0.dtd"
   xmlns="http://www.w3.org/2000/svg"
   xmlns:svg="http://www.w3.org/2000/svg"><sodipodi:namedview
     id="namedview1"
     pagecolor="#ffffff"
     bordercolor="#000000"
     borderopacity="0.25"
     inkscape:showpageshadow="2"
     inkscape:pageopacity="0.0"
     inkscape:pagecheckerboard="0"
     inkscape:deskcolor="#d1d1d1"
     inkscape:document-units="mm"><inkscape:page
       x="0"
       y="0"
       width="24.858366"
       height="35.955013"
       id="page2"
       margin="0"
       bleed="0" /></sodipodi:namedview><defs
     id="defs1" /><g
     inkscape:label="Layer 1"
     inkscape:groupmode="layer"
     id="layer1"
     transform="translate(-90.0776,3.4956397)"><path
       d="m 98.44248,31.467038 c -2.87341,-1.776673 -5.66291,-3.893554 -5.6654,-4.299331 -0.001,-0.218281 0.43274,-1.527968 0.96463,-2.910416 1.23859,-3.21927 1.28733,-5.085833 0.22998,-8.807413 -0.72413,-2.548729 -0.72898,-2.613895 -0.30684,-4.1184 C 94.15538,9.5832535 94.21571,7.4086815 93.81641,5.8687495 93.37763,4.1765825 92.71956,2.82604 92.33381,2.82604 c -0.44169,0 -0.47204,-0.200516 0.30034,1.9843755 0.65197,1.844311 0.91696,4.972968 0.44586,5.2641285 -0.12102,0.07479 -0.43088,-0.5432625 -0.68858,-1.3734485 -0.25771,-0.830186 -0.9312,-2.399549 -1.49665,-3.487473 C 90.08179,3.6494475 89.93523,3.169277 90.1943,2.918696 c 0.18018,-0.174285 1.69004,-0.834994 3.35523,-1.468241 2.84072,-1.080283 3.0414,-1.204509 3.25073,-2.012338 0.2516,-0.970947 0.41459,-0.937713 1.85729,0.378706 0.80223,0.732005 1.01038,1.226985 1.80805,4.2994795 0.49579,1.909731 0.97862,3.472239 1.07296,3.472239 0.47129,0 0.36945,-0.99607 -0.40823,-3.992801 -0.83977,-3.2359605 -0.87275,-3.3033285 -2.29065,-4.6780515 -1.17953,-1.143614 -1.36714,-1.441436 -1.04174,-1.653715 1.79896,-1.173571 9.78959,-0.922383 9.78959,0.307739 0,0.11934 -0.60087,0.665569 -1.33526,1.213841 -1.43238,1.069372 -1.53087,1.2884 -2.85639,6.3520895 -0.40505,1.547357 -0.43602,1.968837 -0.16141,2.196743 0.25264,0.209678 0.3723,0.159676 0.46648,-0.194936 0.0697,-0.262323 0.45842,-1.786639 0.86388,-3.387368 0.71031,-2.8042425 0.78613,-2.9562045 2.07839,-4.1655205 l 1.34118,-1.255104 0.0808,0.901677 c 0.049,0.546799 0.25724,0.971176 0.52916,1.078261 0.24662,0.09712 1.69856,0.653699 3.22653,1.236839 1.52797,0.58314 2.90405,1.164306 3.05796,1.291479 0.18868,0.155909 -0.0888,0.9840875 -0.85179,2.5425365 -0.62239,1.271221 -1.33101,2.945222 -1.57471,3.720002 -0.2437,0.77478 -0.498,1.3537775 -0.56512,1.2866605 -0.0671,-0.06712 -0.11576,-1.0780655 -0.1081,-2.2465495 0.0106,-1.614674 0.16863,-2.507503 0.65855,-3.72042 0.48823,-1.2087335 0.5571,-1.5959035 0.28387,-1.5959035 -0.56586,0 -1.40459,1.9232495 -1.67671,3.8447755 -0.25293,1.785974 -0.0294,4.1039055 0.52534,5.4470795 0.22735,0.550502 0.1722,1.039855 -0.26836,2.38125 -0.74607,2.271572 -1.16129,5.103197 -0.96347,6.570334 0.0892,0.66189 0.59647,2.327571 1.12716,3.701513 l 0.9649,2.498076 -0.90007,0.757605 c -1.16147,0.977626 -6.3276,4.432701 -6.62791,4.432701 -0.12635,0 -0.72029,-1.041797 -1.31987,-2.315104 l -1.09015,-2.315104 -1.07297,2.315104 c -0.59013,1.273307 -1.14037,2.315037 -1.22274,2.314956 -0.0824,-8.2e-5 -0.87176,-0.446567 -1.75419,-0.992188 z m 2.65362,-2.926593 c 0.61907,-1.344796 1.20227,-2.521777 1.29601,-2.615513 0.0937,-0.09374 0.7307,1.04051 1.41547,2.520548 0.68477,1.480037 1.33438,2.690977 1.44357,2.690977 0.24817,0 5.73828,-3.693732 5.91493,-3.979552 0.21238,-0.34365 -0.36312,-1.57779 -0.81697,-1.75195 -0.23175,-0.08893 -0.5967,0.01364 -0.811,0.227946 -0.34313,0.343129 -0.33477,0.434299 0.0701,0.763785 0.40734,0.331539 0.43993,0.321418 0.28617,-0.08888 -0.11602,-0.309558 -0.0447,-0.46302 0.21504,-0.46302 0.59822,0 0.4601,1.001437 -0.18579,1.347107 -0.75161,0.402249 -1.11862,-0.08722 -1.79862,-2.398763 -1.31436,-4.467971 -0.72712,-9.338684 1.48999,-12.358295 0.62761,-0.854777 0.78837,-1.406716 0.40973,-1.406716 -0.38425,0 -1.9345,2.838812 -2.47792,4.537552 -0.83725,2.617282 -0.77095,6.850144 0.15015,9.586767 0.38613,1.147178 0.6683,2.11448 0.62706,2.149561 -0.0412,0.03508 -0.76179,0.0043 -1.60121,-0.06843 -1.25663,-0.108853 -1.4729,-0.196453 -1.22437,-0.495914 0.22078,-0.26603 0.22209,-0.363708 0.005,-0.363708 -0.16334,0 -0.29698,-0.224934 -0.29698,-0.499855 0,-0.684927 -0.89923,-1.746377 -1.28007,-1.511002 -0.47087,0.291013 -0.36528,0.720851 0.15559,0.633393 0.37058,-0.06222 0.47923,0.146078 0.54421,1.04334 0.0447,0.616597 -0.041,1.330972 -0.19039,1.5875 -0.21386,0.367275 -0.2752,0.382057 -0.28861,0.06954 -0.009,-0.218281 -0.24707,-0.873125 -0.52823,-1.455208 -0.45117,-0.934028 -0.5103,-1.648785 -0.50342,-6.085417 0.005,-3.103824 0.0955,-4.809687 0.23706,-4.458845 0.1261,0.312531 0.36315,0.650978 0.52677,0.752104 0.21072,0.130232 0.17277,0.374233 -0.1301,0.836471 -0.55539,0.847644 -0.42527,1.811937 0.24451,1.811937 0.27892,0 0.55676,-0.14891 0.61742,-0.33091 0.07,-0.21007 -0.0427,-0.272197 -0.30868,-0.17013 -0.73104,0.280529 -0.4768,-0.687851 0.39422,-1.501501 0.84236,-0.786886 0.9846,-1.811829 0.28351,-2.042935 -0.25904,-0.08539 -0.30914,0.0373 -0.1806,0.442297 0.13056,0.411372 0.0653,0.56047 -0.24513,0.56047 -0.7724,0 -0.73689,-0.776996 0.0947,-2.072976 0.45199,-0.704354 0.83146,-1.448813 0.84328,-1.654354 0.0118,-0.205541 0.17231,-0.03233 0.35666,0.384923 0.2503,0.56653 0.37455,0.656008 0.49069,0.353355 0.0855,-0.222903 -0.0788,-0.861945 -0.36519,-1.420092 -0.62389,-1.215913 -0.57061,-2.2953855 0.11977,-2.4264265 0.68828,-0.130644 1.21752,0.43 0.70495,0.746786 -0.48206,0.2979265 -0.17516,0.6542705 0.38001,0.4412335 0.57129,-0.219225 0.5095,-1.1639215 -0.10107,-1.5452275 -0.47189,-0.294699 -0.43448,-0.351617 0.50854,-0.773821 1.30885,-0.585989 1.97896,-1.577702 1.72379,-2.551077 -0.10484,-0.399913 -0.20798,-1.203365 -0.22919,-1.785448 -0.035,-0.9612885 0.0217,-1.0583335 0.61926,-1.0583335 0.42492,0 0.69055,0.169883 0.75024,0.479817 0.0569,0.2952535 -0.0435,0.4486045 -0.26096,0.3986715 -0.19435,-0.04463 -0.40443,0.03711 -0.46684,0.181641 -0.26437,0.61222 0.78183,0.365927 1.20792,-0.284365 0.45489,-0.6942515 0.45132,-0.7240215 -0.1449,-1.2068085 -0.74374,-0.602249 -1.05521,-0.616499 -1.81672,-0.08312 -0.41406,0.290023 -0.58803,0.681412 -0.58803,1.3229175 0,0.77426 -0.0914,0.911038 -0.60855,0.911038 -0.33469,0 -0.75141,0.142875 -0.92604,0.3175 -0.45058,0.450585 -0.39363,1.521977 0.0908,1.707866 0.55659,0.213583 0.86147,-0.143656 0.3778,-0.442683 -0.33593,-0.207687 -0.32582,-0.304033 0.0738,-0.703769 0.42794,-0.428056 0.49568,-0.430477 0.8942,-0.03196 0.78108,0.781079 0.26394,1.754383 -1.30086,2.448319 -1.93601,0.858559 -2.49673,1.532067 -2.11577,2.5413495 0.36302,0.961731 0.0518,2.250931 -0.87209,3.612317 -1.38124,2.035374 -1.8749,1.956061 -3.27586,-0.52632 -0.73844,-1.308436 -0.83768,-1.691001 -0.69152,-2.665673 0.23567,-1.5715955 0.0249,-1.9462065 -1.53466,-2.7275065 -1.68851,-0.845907 -2.28208,-1.35925 -2.28208,-1.973637 0,-0.527816 0.91882,-1.144085 1.32838,-0.890964 0.36687,0.226738 0.32164,0.856236 -0.0716,0.996683 -0.1819,0.06497 -0.24656,0.208658 -0.1437,0.319318 0.35066,0.37723 1.0036,-0.110404 1.0036,-0.749513 0,-0.772171 -0.61653,-1.339387 -1.27007,-1.168481 -0.38873,0.101655 -0.45994,-0.0055 -0.37739,-0.567987 C 96.80128,3.080808 95.87049,1.767697 95.16239,1.767697 c -0.26436,0 -0.73131,0.20836 -1.03767,0.463021 -0.49086,0.408027 -0.51698,0.541584 -0.21993,1.1244795 0.358,0.702509 1.25744,0.896209 1.45195,0.312686 0.0738,-0.221444 -0.063,-0.318036 -0.37483,-0.264583 -0.29755,0.05101 -0.49108,-0.07222 -0.49108,-0.3126865 0,-0.218281 0.25983,-0.433866 0.57741,-0.479077 0.80997,-0.11531 1.19488,0.6963915 0.86902,1.8325985 -0.60379,2.105271 -0.19206,3.089792 1.54545,3.695493 l 0.84086,0.293126 -0.56092,0.454208 c -0.62337,0.504774 -0.4959,1.6119845 0.18558,1.6119845 0.4559,0 0.50671,-0.442516 0.0676,-0.5888785 -0.46184,-0.153946 -0.002,-0.734037 0.58232,-0.734037 0.87674,0 1.09656,0.8590945 0.51279,2.0041165 -0.54709,1.073087 -0.70516,2.37544 -0.25451,2.096924 0.14552,-0.08994 0.26935,-0.424385 0.27517,-0.743219 0.009,-0.512177 0.0601,-0.487246 0.43546,0.214053 0.23367,0.436562 0.64562,1.077697 0.91544,1.424743 0.59698,0.767834 0.63427,1.579437 0.0823,1.791247 -0.53233,0.204274 -0.87135,-0.137575 -0.4157,-0.419179 0.24591,-0.151984 0.26346,-0.27142 0.0585,-0.398103 -0.91366,-0.564676 -1.11096,0.971634 -0.20132,1.567652 0.73977,0.484714 1.32905,1.630605 0.95685,1.860639 -0.14004,0.08655 -0.38912,0.07422 -0.55352,-0.02738 -0.18141,-0.112121 -0.2508,-0.04026 -0.17651,0.182823 0.18271,0.548697 0.98079,0.605134 1.18096,0.08351 0.0961,-0.250495 0.043,-0.804426 -0.11795,-1.230958 -0.29838,-0.790478 0.0176,-2.056871 0.51321,-2.056871 0.12217,0 0.21625,2.113359 0.20909,4.696354 -0.0127,4.581816 -0.0312,4.735071 -0.75665,6.283854 l -0.74361,1.5875 -0.1998,-1.259174 c -0.1996,-1.257932 0.15034,-2.227572 0.68473,-1.897298 0.12903,0.07975 0.23461,-0.04063 0.23461,-0.267496 0,-0.45559 -0.22376,-0.514277 -0.73164,-0.191896 -0.41986,0.26651 -1.40192,2.160656 -1.12023,2.160656 0.11426,0 0.26413,0.148828 0.33304,0.330729 0.0917,0.24194 -0.31768,0.333717 -1.52472,0.341859 l -1.65,0.01113 0.64147,-1.863213 c 1.5386,-4.469008 1.00422,-9.608598 -1.39404,-13.407696 -1.12529,-1.782568 -1.04649,-0.803674 0.1116,1.38635 0.56889,1.075828 1.18333,2.693632 1.36541,3.595121 0.44043,2.18056 0.21445,5.850175 -0.49378,8.018221 -0.80547,2.465728 -0.89683,2.570883 -1.74866,2.012736 -0.69973,-0.458481 -0.78126,-0.96062 -0.18806,-1.158353 0.17281,-0.0576 0.31419,0.107598 0.31419,0.36711 0,0.351432 0.0765,0.395356 0.29972,0.172125 0.42052,-0.420525 0.0838,-1.129035 -0.53662,-1.129035 -0.31063,0 -0.67577,0.316075 -0.91186,0.789326 -0.38826,0.778303 -0.37908,0.800957 0.65777,1.622157 1.70682,1.351827 4.83834,3.401681 5.08301,3.327272 0.12451,-0.03787 0.7329,-1.169138 1.35197,-2.513934 z m 4.09582,0.973864 c -0.37643,-0.908795 -0.1196,-1.621581 0.63803,-1.77069 0.2909,-0.05725 0.43466,0.09588 0.43466,0.463021 0,0.301712 -0.14288,0.548567 -0.3175,0.548567 -0.23313,0 -0.23926,0.07824 -0.023,0.294447 0.44315,0.443151 0.93593,-0.0062 0.79802,-0.727631 -0.11465,-0.599729 -0.0673,-0.625959 0.83498,-0.463054 0.52608,0.09498 0.99132,0.201628 1.03387,0.237001 0.069,0.05732 -1.99153,1.594967 -2.75864,2.058657 -0.18015,0.108899 -0.436,-0.146924 -0.64037,-0.640318 z M 97.58299,29.11186 c -0.75916,-0.531446 -1.34878,-0.991901 -1.31027,-1.023234 0.0385,-0.03133 0.53246,-0.140684 1.09766,-0.243002 0.89812,-0.162584 1.00593,-0.12943 0.85533,0.263019 -0.0948,0.246978 -0.0377,0.611244 0.12681,0.809478 0.31253,0.376577 0.76834,0.261403 0.76834,-0.194143 0,-0.145521 -0.13051,-0.183925 -0.29002,-0.08534 -0.18016,0.111348 -0.25395,-0.008 -0.19481,-0.315114 0.11653,-0.605107 0.72858,-0.645686 1.09027,-0.07229 0.33263,0.527335 0.0305,1.826889 -0.42468,1.826889 -0.18608,0 -0.95946,-0.434819 -1.71863,-0.966263 z m 6.02795,-16.297799 c 0.84366,-1.471085 0.94399,-1.785937 0.5691,-1.785937 -0.12786,0 -0.37011,0.327422 -0.53832,0.727604 -0.16821,0.400182 -0.52688,1.017102 -0.79706,1.370933 l -0.49122,0.643329 -0.74167,-1.437079 c -0.45848,-0.888344 -0.77757,-1.2727 -0.83568,-1.006589 -0.11826,0.541597 1.27056,2.876802 1.71093,2.876802 0.18002,0 0.68578,-0.625078 1.12392,-1.389063 z m -0.25675,-1.405924 c 0,-0.492621 -0.57269,-1.7029295 -0.80579,-1.7029295 -0.10542,0 -0.38601,0.2965875 -0.62353,0.6590825 -0.39601,0.604391 -0.39704,0.741614 -0.0125,1.653646 l 0.41939,0.994563 0.5112,-0.624624 c 0.28115,-0.343543 0.51119,-0.784426 0.51119,-0.979738 z m -1.53103,-1.6069325 c 0.55599,-0.942331 0.57643,-0.951233 0.98327,-0.428245 0.22851,0.29375 0.55034,0.7565665 0.71517,1.0284815 0.16483,0.271915 0.38758,0.410552 0.49499,0.308083 0.20335,-0.193998 -1.18783,-2.5905135 -1.50428,-2.5913435 -0.19884,-5.21e-4 -1.02428,1.119269 -1.51116,2.0500475 -0.53236,1.017701 0.1972,0.69196 0.82201,-0.3670235 z m -1.13708,-2.833097 C 100.50444,6.5089815 99.81007,5.3630295 99.14303,4.4215485 98.47599,3.4800675 97.67935,2.303062 97.37271,1.805981 97.03874,1.264588 96.74317,1.018729 96.63558,1.192819 c -0.18839,0.304826 0.58669,1.6589 2.2222,3.8821805 0.53524,0.727604 1.0999,1.680104 1.25478,2.116667 0.6839,1.927629 0.67753,1.917772 0.79634,1.23165 0.0591,-0.341239 -0.0412,-0.996083 -0.22282,-1.455209 z m 5.32153,-1.849452 c 1.66945,-2.3252665 2.37367,-3.4529415 2.37367,-3.8009855 0,-0.654749 -0.40025,-0.330338 -1.1312,0.91687 -0.40388,0.689127 -1.20899,1.9004375 -1.78914,2.6917995 -1.08826,1.484453 -1.744,3.237215 -1.41204,3.774339 0.10955,0.177241 0.36842,-0.243154 0.61474,-0.998293 0.23403,-0.717458 0.83882,-1.880137 1.34397,-2.58373 z m -7.15133,1.940719 c 0,-0.145521 -0.11907,-0.264583 -0.26459,-0.264583 -0.14552,0 -0.26458,0.119062 -0.26458,0.264583 0,0.145521 0.11906,0.264583 0.26458,0.264583 0.14552,0 0.26459,-0.119062 0.26459,-0.264583 z m 7.8052,0 c 0.0899,-0.145521 -0.0291,-0.264583 -0.26458,-0.264583 -0.23546,0 -0.35452,0.119062 -0.26458,0.264583 0.0899,0.145521 0.209,0.264583 0.26458,0.264583 0.0556,0 0.17465,-0.119062 0.26458,-0.264583 z"
       fill="currentColor"
       id="path1-2"
       inkscape:export-filename="light-chest.png"
       inkscape:export-xdpi="96"
       inkscape:export-ydpi="96" /></g></svg>
