<?xml version="1.0" encoding="UTF-8" standalone="no"?>
<!-- Created with Inkscape (http://www.inkscape.org/) -->

<svg
   width="24.517786mm"
   height="30.598024mm"
   viewBox="0 0 24.517786 30.598024"
   version="1.1"
   id="svg1"
   xml:space="preserve"
   xmlns:inkscape="http://www.inkscape.org/namespaces/inkscape"
   xmlns:sodipodi="http://sodipodi.sourceforge.net/DTD/sodipodi-0.dtd"
   xmlns="http://www.w3.org/2000/svg"
   xmlns:svg="http://www.w3.org/2000/svg"><sodipodi:namedview
     id="namedview1"
     pagecolor="#ffffff"
     bordercolor="#000000"
     borderopacity="0.25"
     inkscape:showpageshadow="2"
     inkscape:pageopacity="0.0"
     inkscape:pagecheckerboard="0"
     inkscape:deskcolor="#d1d1d1"
     inkscape:document-units="mm"><inkscape:page
       x="0"
       y="-1.7642724e-20"
       width="24.517786"
       height="30.598024"
       id="page2"
       margin="0"
       bleed="0" /></sodipodi:namedview><defs
     id="defs1" /><g
     inkscape:label="Layer 1"
     inkscape:groupmode="layer"
     id="layer1"
     transform="translate(-190.63138,-57.368971)"><path
       d="m 195.77555,87.823088 c -2.53147,-0.56852 -3.04516,-1.01359 -2.84992,-2.46921 0.0975,-0.72684 -0.009,-1.41222 -0.33022,-2.12446 -0.39955,-0.88605 -0.42604,-1.21202 -0.16836,-2.07208 0.16819,-0.56135 0.30579,-1.74106 0.30579,-2.621595 v -1.60096 l 1.75682,-1.67563 c 1.15971,-1.10612 1.97415,-2.16182 2.39622,-3.10608 0.69144,-1.54689 2.04457,-6.73248 2.32609,-8.91421 l 0.17404,-1.34881 -1.67294,-0.32445 c -0.92012,-0.17845 -2.11853,-0.48429 -2.66315,-0.67964 -1.25493,-0.45016 -1.63143,0.003 -0.41789,0.50306 0.48341,0.19917 1.56354,0.51328 2.40029,0.69802 1.74006,0.38417 1.72884,0.35323 1.11661,3.07953 -1.24195,5.53047 -1.7336,6.90629 -3.07178,8.59588 -0.80228,1.01296 -3.63007,3.12835 -4.18188,3.12835 -0.38017,0 -0.35041,-1.13241 0.0948,-3.60879 0.20566,-1.14386 0.57468,-3.38944 0.82004,-4.99016 0.24536,-1.60073 0.72127,-4.10105 1.05758,-5.55625 0.33631,-1.45521 0.6954,-3.21285 0.79798,-3.90586 0.10258,-0.69302 0.28663,-1.3219 0.40899,-1.39753 0.12237,-0.0756 1.03136,0.0604 2.01999,0.30221 2.683,0.65631 9.12781,0.7993 12.11626,0.26881 1.30969,-0.23248 2.64152,-0.49509 2.95962,-0.58357 0.50433,-0.14028 0.60152,-0.0305 0.75922,0.85774 0.0995,0.56024 0.45402,2.20924 0.7879,3.66445 0.33388,1.4552 0.79774,3.83645 1.03081,5.29166 0.23307,1.45521 0.54017,3.36021 0.68244,4.23334 0.65562,4.02337 0.80739,5.23165 0.6739,5.36514 -0.28806,0.28805 -2.12582,-0.90243 -3.60632,-2.33613 -1.86246,-1.80359 -2.58654,-3.37106 -3.53812,-7.65922 -0.24219,-1.09141 -0.54585,-2.45344 -0.67481,-3.02674 -0.12896,-0.5733 -0.18223,-1.12689 -0.11839,-1.23019 0.0639,-0.1033 0.74153,-0.32887 1.50596,-0.50126 2.34445,-0.52871 3.10967,-0.82385 3.10967,-1.1994 0,-0.30322 -0.17812,-0.30243 -1.12448,0.005 -1.96049,0.63685 -2.15714,0.61655 -2.4474,-0.2527 -0.14552,-0.4358 -0.55825,-0.93836 -0.91718,-1.1168 -0.86809,-0.43158 -0.97991,-0.25443 -0.30005,0.47533 0.69578,0.74683 0.70302,1.29727 0.0266,2.02331 -0.62818,0.67427 -0.64351,0.9821 -0.16114,3.23606 1.38867,6.4888 2.10923,8.11869 4.52643,10.2386 1.26698,1.11116 1.44928,1.39461 1.4522,2.25795 0.002,0.543 0.14606,1.819565 0.3205,2.836795 0.27998,1.63275 0.26315,1.96275 -0.1436,2.81572 -0.33149,0.69513 -0.41303,1.28451 -0.29064,2.10068 0.14998,1.00015 0.0965,1.18069 -0.45171,1.52503 -1.53612,0.96483 -4.9837,1.22179 -5.92388,0.44152 -0.21257,-0.17643 -0.38649,-0.68268 -0.38649,-1.12502 0,-0.44234 -0.30585,-1.32614 -0.67966,-1.964 -0.57816,-0.98656 -0.71725,-1.6617 -0.9314,-4.52116 -0.13847,-1.848785 -0.42755,-4.373455 -0.64242,-5.610385 -0.21487,-1.23693 -0.39105,-2.57638 -0.39151,-2.97656 -5.2e-4,-0.44925 -0.14353,-0.72761 -0.37382,-0.72761 -0.37557,0 -0.51223,0.6402 -1.21431,5.68855 -0.1619,1.16416 -0.38783,3.262585 -0.50207,4.663155 -0.15364,1.88361 -0.35641,2.78711 -0.77897,3.47082 -0.31419,0.50837 -0.57308,1.26745 -0.57531,1.68684 -0.005,0.9105 -0.20107,1.24382 -0.97074,1.64895 -0.56725,0.29858 -2.08141,0.35862 -3.12625,0.12397 z m -4.36563,-12.138525 c 0,-0.22687 -0.121,-0.3377 -0.2689,-0.2463 -0.14789,0.0914 -0.2004,0.27703 -0.11667,0.41249 0.22681,0.36699 0.38557,0.29856 0.38557,-0.16619 z m 23.28334,-0.11667 c 0,-0.14552 -0.11907,-0.26459 -0.26459,-0.26459 -0.14552,0 -0.26458,0.11907 -0.26458,0.26459 0,0.14552 0.11906,0.26458 0.26458,0.26458 0.14552,0 0.26459,-0.11906 0.26459,-0.26458 z m -21.43125,-1.05834 c 0,-0.14552 -0.1786,-0.26458 -0.39688,-0.26458 -0.21828,0 -0.39687,0.11906 -0.39687,0.26458 0,0.14552 0.17859,0.26459 0.39687,0.26459 0.21828,0 0.39688,-0.11907 0.39688,-0.26459 z m 19.84375,0 c 0,-0.14552 -0.11907,-0.26458 -0.26459,-0.26458 -0.14552,0 -0.26458,0.11906 -0.26458,0.26458 0,0.14552 0.11906,0.26459 0.26458,0.26459 0.14552,0 0.26459,-0.11907 0.26459,-0.26459 z m -18.40251,-1.61009 c -0.0852,-0.13784 -0.26767,-0.18092 -0.40551,-0.0957 -0.13784,0.0852 -0.18091,0.26767 -0.0957,0.40551 0.0852,0.13783 0.26767,0.18091 0.40551,0.0957 0.13784,-0.0852 0.18092,-0.26767 0.0957,-0.4055 z m 16.71027,-0.17033 c -0.26895,-0.26895 -0.49086,0.13597 -0.27019,0.49302 0.16669,0.26972 0.22901,0.26993 0.31864,10e-4 0.0613,-0.18382 0.0395,-0.40616 -0.0485,-0.49408 z m -15.57186,-1.81354 c -0.25214,-0.25213 -0.75763,0.15627 -0.56973,0.4603 0.11168,0.18071 0.25968,0.17615 0.4497,-0.0139 0.15577,-0.15578 0.20979,-0.35667 0.12003,-0.44643 z m 14.61826,0.28667 c 0,-0.21828 -0.11906,-0.39687 -0.26458,-0.39687 -0.14552,0 -0.26458,0.17859 -0.26458,0.39687 0,0.21828 0.11906,0.39688 0.26458,0.39688 0.14552,0 0.26458,-0.1786 0.26458,-0.39688 z m -14.02291,-2.13228 c 0,-0.22687 -0.11907,-0.3389 -0.26459,-0.24897 -0.14552,0.0899 -0.26458,0.27556 -0.26458,0.41249 0,0.13693 0.11906,0.24897 0.26458,0.24897 0.14552,0 0.26459,-0.18562 0.26459,-0.41249 z m 9.13725,-2.1935 c 0.2298,-0.77845 0.37465,-1.73095 0.32189,-2.11666 l -0.0959,-0.70131 -0.20581,0.79375 c -0.21831,0.84194 -1.01018,3.34744 -1.33796,4.23334 -0.15677,0.42371 -0.0866,0.39734 0.3521,-0.1323 0.30134,-0.3638 0.73591,-1.29837 0.96571,-2.07682 z m 4.2242,2.34141 c 0.0899,-0.14552 -0.0221,-0.26459 -0.24896,-0.26459 -0.22687,0 -0.41249,0.11907 -0.41249,0.26459 0,0.14552 0.11203,0.26458 0.24896,0.26458 0.13694,0 0.32256,-0.11906 0.41249,-0.26458 z m -8.88782,-1.78594 c -1.13519,-3.73727 -1.03617,-3.53183 -0.92285,-1.9147 0.0953,1.35938 0.82961,3.43605 1.21505,3.43605 0.0934,0 -0.038,-0.68461 -0.2922,-1.52135 z m -3.94447,-0.33073 c 0,-0.14552 -0.11906,-0.26458 -0.26458,-0.26458 -0.14552,0 -0.26458,0.11906 -0.26458,0.26458 0,0.14552 0.11906,0.26458 0.26458,0.26458 0.14552,0 0.26458,-0.11906 0.26458,-0.26458 z m 12.17084,0 c 0,-0.14552 -0.11907,-0.26458 -0.26459,-0.26458 -0.14552,0 -0.26458,0.11906 -0.26458,0.26458 0,0.14552 0.11906,0.26458 0.26458,0.26458 0.14552,0 0.26459,-0.11906 0.26459,-0.26458 z m -11.64167,-2.11667 c 0,-0.14552 -0.11906,-0.26458 -0.26458,-0.26458 -0.14552,0 -0.26459,0.11906 -0.26459,0.26458 0,0.14552 0.11907,0.26459 0.26459,0.26459 0.14552,0 0.26458,-0.11907 0.26458,-0.26459 z m 11.37708,0 c 0,-0.14552 -0.17859,-0.26458 -0.39687,-0.26458 -0.21828,0 -0.39688,0.11906 -0.39688,0.26458 0,0.14552 0.1786,0.26459 0.39688,0.26459 0.21828,0 0.39687,-0.11907 0.39687,-0.26459 z m -10.84791,-2.11666 c 0,-0.14552 -0.11204,-0.26459 -0.24897,-0.26459 -0.13693,0 -0.32256,0.11907 -0.41249,0.26459 -0.0899,0.14552 0.0221,0.26458 0.24897,0.26458 0.22687,0 0.41249,-0.11906 0.41249,-0.26458 z m 10.31875,0 c 0,-0.14552 -0.11907,-0.26459 -0.26459,-0.26459 -0.14552,0 -0.26458,0.11907 -0.26458,0.26459 0,0.14552 0.11906,0.26458 0.26458,0.26458 0.14552,0 0.26459,-0.11906 0.26459,-0.26458 z m -3.77387,-0.71318 c 0.0699,-0.21211 -0.35225,-0.34285 -1.28133,-0.39688 -0.81105,-0.0472 -1.43069,-0.21769 -1.49449,-0.4113 -0.0631,-0.19156 0.11639,-0.33073 0.42661,-0.33073 0.29458,0 0.60918,-0.11906 0.69912,-0.26458 0.0927,-0.15006 -0.12955,-0.26458 -0.51355,-0.26458 -0.42546,0 -0.67708,-0.14749 -0.67708,-0.39688 0,-0.28525 0.29158,-0.39687 1.0367,-0.39687 1.18556,0 1.87372,-0.20938 1.87372,-0.5701 0,-0.13731 -0.74033,-0.21359 -1.65123,-0.17013 -1.51011,0.072 -1.68124,0.14159 -2.00241,0.81389 -0.27264,0.5707 -0.28465,0.93673 -0.0537,1.63655 0.16363,0.4958 0.43964,0.96199 0.61335,1.03599 0.59448,0.25323 2.9192,0.0346 3.02428,-0.28438 z"
       fill="currentColor"
       id="path1-36"
       inkscape:export-filename="medium-leggings.png"
       inkscape:export-xdpi="96"
       inkscape:export-ydpi="96" /></g></svg>
