<?xml version="1.0" encoding="UTF-8" standalone="no"?>
<!-- Created with Inkscape (http://www.inkscape.org/) -->

<svg
   width="53.908756mm"
   height="60.903584mm"
   viewBox="0 0 53.908756 60.903584"
   version="1.1"
   id="svg1"
   xml:space="preserve"
   xmlns:inkscape="http://www.inkscape.org/namespaces/inkscape"
   xmlns:sodipodi="http://sodipodi.sourceforge.net/DTD/sodipodi-0.dtd"
   xmlns="http://www.w3.org/2000/svg"
   xmlns:svg="http://www.w3.org/2000/svg"><sodipodi:namedview
     id="namedview1"
     pagecolor="#ffffff"
     bordercolor="#000000"
     borderopacity="0.25"
     inkscape:showpageshadow="2"
     inkscape:pageopacity="0.0"
     inkscape:pagecheckerboard="0"
     inkscape:deskcolor="#d1d1d1"
     inkscape:document-units="mm"><inkscape:page
       x="0"
       y="0"
       width="53.908756"
       height="60.903584"
       id="page2"
       margin="0"
       bleed="0" /></sodipodi:namedview><defs
     id="defs1" /><g
     inkscape:label="Layer 1"
     inkscape:groupmode="layer"
     id="layer1"
     transform="translate(45.751821,-693.04472)"><path
       d="m -28.31044,753.79034 c -6.52405,-0.66566 -9.01565,-1.61387 -10.96822,-4.17411 -0.61753,-0.80971 -1.65371,-1.73992 -2.44938,-2.19887 -2.73217,-1.57597 -3.24744,-2.75114 -3.24967,-7.41167 -10e-4,-2.41052 -0.0874,-3.14775 -0.39835,-3.40583 -0.51028,-0.4235 -0.50177,-1.55072 0.0312,-4.13889 0.62197,-3.02019 1.40208,-4.42028 2.76725,-4.96651 0.60722,-0.24296 1.11948,-0.407 1.13836,-0.36453 0.0189,0.0425 0.38342,0.7456 0.81008,1.56252 l 0.77575,1.48531 -0.34684,4.20323 c -0.49763,6.03062 -0.63996,11.48926 -0.32001,12.27303 0.20863,0.51108 0.27435,-2e-4 0.28908,-2.24896 0.0105,-1.60073 0.19135,-4.37143 0.40192,-6.15711 0.21056,-1.78569 0.46456,-4.43319 0.56444,-5.88334 0.17585,-2.55324 0.15948,-2.67004 -0.51744,-3.69294 -0.86225,-1.30294 -0.87281,-1.88724 -0.12844,-7.10643 0.55077,-3.86179 0.55718,-4.11319 0.13481,-5.29167 -0.24389,-0.68049 -0.44284,-1.79125 -0.44212,-2.46836 0.002,-1.92382 1.48483,-10.00364 2.09662,-11.42468 0.36275,-0.84257 0.55745,-1.88037 0.57085,-3.04271 0.0531,-4.60914 1.90569,-5.71891 3.90928,-2.34185 0.89264,1.50456 0.90416,1.56169 0.59418,2.9468 -0.33836,1.51199 -0.61902,1.72115 -2.31934,1.72847 -1.26741,0.005 -1.64942,0.23858 -2.2183,1.35368 -0.58593,1.14851 -1.83459,8.53299 -1.82972,10.82077 0.005,2.50957 1.20844,4.48938 3.69946,6.08786 1.4184,0.91019 5.26787,1.88798 9.8886,2.51179 3.04537,0.41113 4.05407,0.3855 3.75683,-0.0955 -0.15634,-0.25296 -0.78088,-0.37598 -4.91035,-0.96726 -4.30105,-0.61584 -7.54198,-1.56932 -9.01861,-2.65326 -1.49006,-1.0938 -2.6307,-3.13284 -2.6307,-4.70271 0,-1.78498 1.32658,-9.52804 1.79886,-10.49972 l 0.4501,-0.92604 2.38125,-0.20615 c 1.30969,-0.11338 9.13389,-0.17291 17.38712,-0.13229 16.97135,0.0835 15.57764,-0.11809 16.21815,2.34622 0.46048,1.77163 1.18796,7.24313 1.18597,8.91983 -0.006,4.77358 -2.94581,6.69555 -12.21788,7.98685 -2.22889,0.31041 -4.16173,0.67235 -4.2952,0.80431 -0.52099,0.51507 0.73793,0.55211 4.00016,0.11769 8.18985,-1.09062 11.49022,-2.65544 12.95918,-6.14438 0.70049,-1.66374 0.12202,-9.00366 -1.00643,-12.77009 -0.41354,-1.38027 -1.00657,-1.78964 -2.90348,-2.00425 l -1.51735,-0.17167 -0.17988,-1.54985 c -0.15471,-1.33297 -0.0963,-1.68955 0.41737,-2.54804 0.89261,-1.49182 1.59858,-2.18927 2.21142,-2.18475 1.31365,0.01 1.71014,0.90305 2.15616,4.85825 0.19894,1.76412 0.53033,3.80645 0.73642,4.53852 0.45578,1.61899 1.22904,7.45688 1.22701,9.26356 -8.1e-4,0.72141 -0.12578,1.75924 -0.2777,2.30629 -0.20713,0.74585 -0.16722,1.80473 0.15956,4.23333 0.81128,6.02938 0.8111,6.60989 -0.002,8.42283 -0.8075,1.79935 -0.80951,1.12322 0.0312,10.53592 0.22636,2.53415 0.36352,5.36189 0.30481,6.28385 -0.0587,0.92197 -0.0191,1.67631 0.088,1.67631 0.63359,0 0.6069,-4.69235 -0.0734,-12.90285 l -0.33468,-4.0393 0.75593,-1.51694 c 0.41576,-0.83433 0.78692,-1.55667 0.8248,-1.60521 0.0379,-0.0485 0.59051,0.1425 1.22808,0.42452 0.99165,0.43866 1.26004,0.73822 1.85687,2.07263 0.38936,0.87053 0.84006,2.58397 1.01988,3.87727 0.28264,2.03293 0.26961,2.4227 -0.10614,3.175 -0.30381,0.60828 -0.45371,1.78161 -0.51565,4.03607 -0.11147,4.05776 -0.55883,5.1229 -2.72111,6.47881 -0.82211,0.51552 -2.0479,1.64666 -2.76512,2.55162 -2.68894,3.39277 -5.73841,4.06937 -18.91833,4.19753 -4.94771,0.0481 -10.00787,-0.0158 -11.2448,-0.142 z m 10.96946,-17.02057 c 0.61791,-0.81013 0.67221,-1.09837 0.67221,-3.56833 0,-1.61494 -0.10556,-2.687 -0.26458,-2.687 -0.14997,0 -0.26585,0.77364 -0.2675,1.78594 -0.004,2.57397 -0.24433,3.67433 -0.97359,4.46121 l -0.64319,0.69401 -0.64576,-0.60666 c -0.83732,-0.78662 -1.17083,-2.04262 -1.17265,-4.41627 -8.5e-4,-1.10145 -0.11414,-1.91823 -0.26606,-1.91823 -0.40898,0 -0.32737,4.62923 0.0996,5.65118 0.20031,0.47942 0.70459,1.11963 1.12061,1.42268 0.89159,0.64948 1.34104,0.49232 2.34088,-0.81853 z m 0.93679,-7.15973 c 0,-0.0609 0.0723,-0.29899 0.1606,-0.52917 0.13981,-0.36433 -0.17989,-0.41851 -2.46944,-0.41851 -1.44652,0 -2.70122,0.0712 -2.7882,0.15816 -0.087,0.087 -0.0941,0.32511 -0.0158,0.52916 0.10815,0.28185 0.73959,0.37101 2.6276,0.37101 1.36688,0 2.48523,-0.0498 2.48523,-0.11065 z m -4.49791,-3.8581 c 0,-1.16417 0.0893,-2.11829 0.19844,-2.12028 0.10914,-0.002 0.45791,-0.0732 0.77505,-0.15826 0.49845,-0.13369 0.58811,-0.0346 0.66145,0.73122 0.10959,1.1442 0.58893,1.14742 0.69851,0.005 0.0632,-0.65949 0.18517,-0.84253 0.48466,-0.7276 0.22009,0.0844 0.56902,0.15355 0.7754,0.15355 0.29298,0 0.37524,0.46884 0.37524,2.13872 0,1.59301 0.0844,2.11076 0.33073,2.02917 0.22248,-0.0737 0.35576,-0.86117 0.40721,-2.40592 l 0.0765,-2.29637 -0.73795,-0.28457 c -0.94708,-0.36523 -4.19715,-0.19327 -4.63569,0.24526 -0.36389,0.36389 -0.47064,3.55212 -0.14545,4.34403 0.43524,1.05992 0.73591,0.3843 0.73591,-1.65365 z m -0.004,-5.32416 c -0.16916,-0.63697 -0.65408,-1.76794 -1.07759,-2.51325 -1.10057,-1.93683 -1.0292,-2.30485 0.60484,-3.11913 2.09917,-1.04606 4.38641,-0.78526 5.94369,0.67773 l 0.57891,0.54385 -0.88395,1.62634 c -1.14138,2.09996 -1.64894,3.78945 -1.25637,4.18202 0.20994,0.20994 0.37502,-0.0269 0.59933,-0.85996 0.17028,-0.63234 0.71472,-1.9542 1.20989,-2.93747 1.06346,-2.11175 1.08561,-2.33304 0.30499,-3.04682 -1.49211,-1.36434 -3.50999,-1.875 -5.51164,-1.39482 -1.45364,0.34873 -3.15385,1.60915 -3.1529,2.33735 3.1e-4,0.23959 0.34185,1.09046 0.75896,1.89082 0.41712,0.80036 0.90216,1.93146 1.07786,2.51354 0.56317,1.86566 0.54223,1.82726 0.83638,1.53311 0.19051,-0.19051 0.18054,-0.63151 -0.0324,-1.43331 z m -10.41874,-19.43586 c -0.0883,-0.23018 -0.1606,-0.63312 -0.1606,-0.8954 0,-0.79553 -2.09254,-4.71412 -2.82504,-5.29031 -0.37725,-0.29674 -0.93774,-0.54315 -1.24553,-0.54757 -1.34588,-0.0194 0.4191,-0.52237 2.83088,-0.80681 2.39945,-0.28298 2.5765,-0.26962 3.30544,0.24943 1.05027,0.74786 3.75442,6.06149 3.75495,7.37845 10e-5,0.24337 -0.72614,0.33072 -2.74968,0.33072 -2.2634,0 -2.77823,-0.074 -2.91042,-0.41851 z m 6.1894,0.0227 c 0,-0.8864 1.18785,-3.79638 2.10647,-5.16043 1.25323,-1.86088 3.34947,-3.05248 4.86855,-2.7675 2.52844,0.47434 5.11568,3.79642 5.81287,7.46386 l 0.16347,0.85989 h -1.56801 -1.568 l 0.1556,-2.20493 c 0.14499,-2.05453 0.11471,-2.24304 -0.44399,-2.76354 -1.42272,-1.32547 -4.6427,-1.26275 -6.02276,0.11731 -0.6353,0.6353 -0.66035,0.77165 -0.50704,2.75974 l 0.16128,2.09142 h -1.57922 c -1.22549,0 -1.57922,-0.0887 -1.57922,-0.39582 z m 13.22917,0.31417 c 0,-0.55165 1.79044,-4.72323 2.50998,-5.84806 1.443,-2.25577 1.72069,-2.37125 4.81586,-2.00262 2.47634,0.29492 4.1597,0.76172 2.81477,0.78054 -1.40272,0.0196 -3.07387,2.35846 -3.9584,5.53995 l -0.44813,1.61184 h -2.86704 c -1.57687,0 -2.86704,-0.0367 -2.86704,-0.0817 z"
       fill="currentColor"
       id="path1-68" /></g></svg>
